# xmcd
#
# Track frame offsets:
#	150
#	14744
#	29565
#	48819
#	67510
#	80278
#	91111
#	106813
#	122751
#	145243
#
# Disc length: 2146 seconds
# Revision: 0
# Processed by: cddbd v1.5.2PL0 Copyright (c) Steve Scherf et al.
# Submitted via: dBpowerAMP V12.0
#
DISCID=7408600a
DTITLE=Shelly Colvin - Up The Hickory Down The Pine
DYEAR=2012
DGENRE=Americana
TTITLE0=Alright Now
TTITLE1=Wishing Well
TTITLE2=Holding Steady
TTITLE3=To The Bone
TTITLE4=Nine Rose Rocks
TTITLE5=Up The Hickory Down The Pine
TTITLE6=Panama Red
TTITLE7=Pocket Change
TTITLE8=Crows
TTITLE9=The Staying Kind
EXTD=
EXTT0=
EXTT1=
EXTT2=
EXTT3=
EXTT4=
EXTT5=
EXTT6=
EXTT7=
EXTT8=
EXTT9=
PLAYORDER=
